<svg width="20" height="21" viewBox="0 0 20 21" fill="none" xmlns="http://www.w3.org/2000/svg">
<path d="M20 14.2711C20 17.9111 17.83 20.0811 14.19 20.0811H13C12.45 20.0811 12 19.6311 12 19.0811V13.3111C12 13.0411 12.22 12.8111 12.49 12.8111L14.25 12.7811C14.39 12.7711 14.51 12.6711 14.54 12.5311L14.89 10.6211C14.92 10.4411 14.78 10.2711 14.59 10.2711L12.46 10.3011C12.18 10.3011 11.96 10.0811 11.95 9.81107L11.91 7.36105C11.91 7.20105 12.04 7.06107 12.21 7.06107L14.61 7.02106C14.78 7.02106 14.91 6.89107 14.91 6.72107L14.87 4.32104C14.87 4.15104 14.74 4.02106 14.57 4.02106L11.87 4.06107C10.21 4.09107 8.89001 5.45105 8.92001 7.11105L8.97 9.86105C8.98 10.1411 8.76001 10.3611 8.48001 10.3711L7.28 10.3911C7.11 10.3911 6.98001 10.521 6.98001 10.691L7.01001 12.5911C7.01001 12.7611 7.14 12.8911 7.31 12.8911L8.51001 12.8711C8.79001 12.8711 9.00999 13.0911 9.01999 13.3611L9.10999 19.0611C9.11999 19.6211 8.66999 20.0811 8.10999 20.0811H5.81C2.17 20.0811 0 17.911 0 14.261V5.89105C0 2.25105 2.17 0.0810547 5.81 0.0810547H14.19C17.83 0.0810547 20 2.25105 20 5.89105V14.2711Z" fill="white"/>
</svg>
