<svg width="20" height="21" viewBox="0 0 20 21" fill="none" xmlns="http://www.w3.org/2000/svg">
<path d="M14.19 0.0810547H5.81C2.17 0.0810547 0 2.25105 0 5.89105V14.2611C0 17.9111 2.17 20.0811 5.81 20.0811H14.18C17.82 20.0811 19.99 17.9111 19.99 14.2711V5.89105C20 2.25105 17.83 0.0810547 14.19 0.0810547ZM10 13.9611C7.86 13.9611 6.12 12.2211 6.12 10.0811C6.12 7.94105 7.86 6.20105 10 6.20105C12.14 6.20105 13.88 7.94105 13.88 10.0811C13.88 12.2211 12.14 13.9611 10 13.9611ZM15.92 4.96105C15.87 5.08105 15.8 5.19105 15.71 5.29105C15.61 5.38105 15.5 5.45105 15.38 5.50105C15.26 5.55105 15.13 5.58105 15 5.58105C14.73 5.58105 14.48 5.48105 14.29 5.29105C14.2 5.19105 14.13 5.08105 14.08 4.96105C14.03 4.84105 14 4.71105 14 4.58105C14 4.45105 14.03 4.32105 14.08 4.20105C14.13 4.07105 14.2 3.97105 14.29 3.87105C14.52 3.64105 14.87 3.53105 15.19 3.60105C15.26 3.61105 15.32 3.63105 15.38 3.66105C15.44 3.68105 15.5 3.71105 15.56 3.75105C15.61 3.78105 15.66 3.83105 15.71 3.87105C15.8 3.97105 15.87 4.07105 15.92 4.20105C15.97 4.32105 16 4.45105 16 4.58105C16 4.71105 15.97 4.84105 15.92 4.96105Z" fill="white"/>
</svg>
