<svg width="20" height="21" viewBox="0 0 20 21" fill="none" xmlns="http://www.w3.org/2000/svg">
<path d="M19.98 9.49101C19.64 3.69101 14.37 -0.778983 8.30004 0.221017C4.12004 0.911017 0.770048 4.301 0.120049 8.481C-0.259951 10.901 0.24007 13.191 1.33007 15.081L0.440056 18.391C0.240056 19.141 0.930036 19.821 1.67004 19.611L4.93005 18.711C6.41005 19.581 8.14004 20.081 9.99004 20.081C15.63 20.081 20.31 15.111 19.98 9.49101ZM14.8801 13.801C14.7901 13.981 14.68 14.151 14.54 14.311C14.29 14.581 14.02 14.781 13.72 14.901C13.42 15.031 13.09 15.091 12.74 15.091C12.23 15.091 11.68 14.971 11.11 14.721C10.53 14.471 9.96007 14.141 9.39007 13.731C8.81007 13.311 8.27005 12.841 7.75005 12.331C7.23005 11.811 6.77003 11.261 6.35003 10.691C5.94003 10.121 5.61005 9.551 5.37005 8.981C5.13005 8.411 5.01006 7.86101 5.01006 7.34101C5.01006 7.00101 5.07006 6.67101 5.19006 6.37101C5.31006 6.06101 5.50007 5.78101 5.77007 5.53101C6.09007 5.21101 6.44005 5.06101 6.81005 5.06101C6.95005 5.06101 7.09002 5.09101 7.22002 5.15101C7.35002 5.21101 7.47005 5.30101 7.56005 5.43101L8.72002 7.07099C8.81002 7.20099 8.88004 7.311 8.92004 7.421C8.97004 7.531 8.99004 7.631 8.99004 7.731C8.99004 7.851 8.95006 7.97101 8.88006 8.09101C8.81006 8.21101 8.72003 8.331 8.60003 8.451L8.22002 8.85099C8.16002 8.91099 8.14007 8.971 8.14007 9.051C8.14007 9.091 8.15003 9.131 8.16003 9.171C8.18003 9.211 8.19007 9.241 8.20007 9.271C8.29007 9.441 8.45004 9.65099 8.67004 9.91099C8.90004 10.171 9.14008 10.441 9.40008 10.701C9.67008 10.971 9.93007 11.211 10.2001 11.441C10.4601 11.661 10.68 11.811 10.85 11.901C10.88 11.911 10.9101 11.931 10.9401 11.941C10.9801 11.961 11.0201 11.961 11.0701 11.961C11.1601 11.961 11.2201 11.931 11.2801 11.871L11.66 11.491C11.79 11.361 11.9101 11.271 12.0201 11.211C12.1401 11.141 12.2501 11.101 12.3801 11.101C12.4801 11.101 12.5801 11.121 12.6901 11.171C12.8001 11.221 12.92 11.281 13.04 11.371L14.7001 12.551C14.8301 12.641 14.92 12.751 14.98 12.871C15.03 13.001 15.0601 13.121 15.0601 13.261C15.0001 13.431 14.9601 13.621 14.8801 13.801Z" fill="white"/>
</svg>
